<?xml version="1.0" standalone="no"?><!DOCTYPE svg PUBLIC "-//W3C//DTD SVG 1.1//EN" "http://www.w3.org/Graphics/SVG/1.1/DTD/svg11.dtd"><svg t="1737351229430" class="icon" viewBox="0 0 1024 1024" version="1.1" xmlns="http://www.w3.org/2000/svg" p-id="2402" xmlns:xlink="http://www.w3.org/1999/xlink" width="200" height="200"><path d="M832 704c46.933333 0 85.333333-38.4 85.333333-85.333333V192c0-46.933333-38.4-85.333333-85.333333-85.333333H192C145.066667 106.666667 106.666667 145.066667 106.666667 192v426.666667c0 46.933333 38.4 85.333333 85.333333 85.333333h277.333333v64h-74.666666c-17.066667 0-32 14.933333-32 32v10.666667H138.666667c-17.066667 0-32 14.933333-32 32S121.6 874.666667 138.666667 874.666667H362.666667v10.666666c0 17.066667 14.933333 32 32 32h213.333333c17.066667 0 32-14.933333 32-32V874.666667h245.333333c17.066667 0 32-14.933333 32-32s-14.933333-32-32-32H640v-10.666667c0-17.066667-14.933333-32-32-32H533.333333v-64h298.666667z m-413.866667-192c0 14.933333-8.533333 21.333333-21.333333 21.333333s-21.333333-6.4-21.333333-21.333333v-170.666667c0-14.933333 8.533333-23.466667 21.333333-23.466666 14.933333 0 21.333333 8.533333 21.333333 23.466666v170.666667z m70.4 0c0 14.933333-8.533333 21.333333-21.333333 21.333333s-21.333333-6.4-21.333333-21.333333v-170.666667c0-14.933333 8.533333-23.466667 21.333333-23.466666 14.933333 0 21.333333 8.533333 21.333333 23.466666v170.666667z m19.2-10.666667c0-12.8 6.4-19.2 19.2-21.333333 4.266667 0 10.666667 2.133333 21.333334 4.266667 12.8 4.266667 21.333333 6.4 29.866666 6.4 19.2 0 29.866667-8.533333 29.866667-25.6 0-8.533333-12.8-17.066667-38.4-25.6-34.133333-2.133333-55.466667-21.333333-61.866667-57.6 2.133333-42.666667 27.733333-64 72.533334-68.266667 38.4 2.133333 57.6 12.8 57.6 29.866667 0 14.933333-6.4 21.333333-19.2 21.333333-2.133333 0-8.533333-2.133333-17.066667-4.266667s-17.066667-4.266667-23.466667-4.266666c-14.933333 0-23.466667 6.4-23.466666 19.2 0 8.533333 10.666667 14.933333 34.133333 21.333333 36.266667 2.133333 59.733333 25.6 66.133333 66.133333-2.133333 42.666667-27.733333 64-76.8 66.133334-46.933333 4.266667-70.4-6.4-70.4-27.733334z" p-id="2403" data-spm-anchor-id="a313x.search_index.0.i6.698b3a81Jbifjg" class="selected" fill="#1296db"></path></svg>