<?xml version="1.0" standalone="no"?><!DOCTYPE svg PUBLIC "-//W3C//DTD SVG 1.1//EN" "http://www.w3.org/Graphics/SVG/1.1/DTD/svg11.dtd"><svg t="1737351108121" class="icon" viewBox="0 0 1024 1024" version="1.1" xmlns="http://www.w3.org/2000/svg" p-id="2050" xmlns:xlink="http://www.w3.org/1999/xlink" width="200" height="200"><path d="M638.68928 805.23264v-136.02816c25.47712 16.67072 50.87232 29.0816 76.1856 37.2736a235.27424 235.27424 0 0 0 71.84384 12.16512c27.4432 0 49.11104-4.05504 64.96256-12.20608 15.81056-8.11008 23.7568-20.56192 23.7568-37.15072a35.75808 35.75808 0 0 0-10.77248-26.58304 99.04128 99.04128 0 0 0-27.72992-18.6368 303.63648 303.63648 0 0 0-37.02784-14.336c-13.39392-4.25984-26.33728-9.0112-38.7072-14.336a361.18528 361.18528 0 0 1-52.75648-26.29632 154.624 154.624 0 0 1-38.21568-32.68608 131.80928 131.80928 0 0 1-23.552-43.04896c-5.40672-16.26112-8.15104-35.59424-8.15104-57.9584 0-30.47424 6.144-56.68864 18.432-78.6432 12.288-21.9136 28.59008-39.936 49.02912-53.90336a214.46656 214.46656 0 0 1 70.12352-30.84288c26.33728-6.5536 53.6576-9.87136 82.08384-9.87136 22.24128 0 44.76928 1.8432 67.66592 5.57056 22.89664 3.72736 45.4656 9.13408 67.66592 16.22016v129.67936a233.71776 233.71776 0 0 0-62.99648-27.8528 245.92384 245.92384 0 0 0-65.9456-9.33888c-10.15808 0-19.6608 0.98304-28.672 2.90816-9.0112 1.92512-16.91648 4.75136-23.7568 8.47872-6.88128 3.72736-12.288 8.47872-16.1792 14.336a35.2256 35.2256 0 0 0-5.89824 19.94752c0 9.95328 2.99008 18.432 8.84736 25.51808 5.89824 7.12704 13.5168 13.18912 23.06048 18.35008 9.50272 5.12 19.98848 9.74848 31.58016 13.80352 11.63264 4.096 23.10144 8.192 34.6112 12.4928 20.56192 7.7824 39.19872 16.26112 55.9104 25.51808 16.67072 9.25696 30.9248 20.02944 42.88512 32.44032 11.96032 12.41088 21.05344 26.86976 27.4432 43.58144 6.43072 16.62976 9.58464 36.49536 9.58464 59.55584 0 32.19456-6.47168 59.8016-19.33312 82.61632a162.89792 162.89792 0 0 1-51.48672 55.82848 221.26592 221.26592 0 0 1-74.05568 31.29344c-27.93472 6.5536-56.9344 9.8304-87.04 9.8304-55.21408 0-106.33216-9.25696-153.3952-27.68896zM40.96 284.34432h245.84192v110.22336H40.96v-110.1824zM40.96 725.4016h245.84192v110.1824H40.96v-110.1824z" fill="#33A9DD" p-id="2051"></path><path d="M110.83776 387.39968h106.0864v353.81248h-106.0864V387.39968z m211.43552-103.05536h245.84192v110.22336H322.27328v-110.1824z m0 441.01632h245.84192v110.1824H322.27328v-110.1824z" fill="#33A9DD" p-id="2052"></path><path d="M392.15104 387.39968h106.0864v353.81248h-106.0864V387.39968z" fill="#33A9DD" p-id="2053"></path></svg>